HIERARCHY
ROOT Hips
{
	OFFSET -3.958830 18.904000 13.208200
	CHANNELS 6 Xposition Yposition Zposition Zrotation Yrotation Xrotation 
	JOINT LHipJoint
	{
		OFFSET 0.000000 0.000000 0.000000
		CHANNELS 3 Zrotation Yrotation Xrotation
		JOINT LeftUpLeg
		{
			OFFSET 1.800000 -1.400000 0.085000
			CHANNELS 3 Zrotation Yrotation Xrotation
			JOINT LeftLeg
			{
				OFFSET 2.215000 -6.000000 0.000000
				CHANNELS 3 Zrotation Yrotation Xrotation
				JOINT LeftFoot
				{
					OFFSET 2.500000 -6.900000 0.000000
					CHANNELS 3 Zrotation Yrotation Xrotation
					JOINT LeftToeBase
					{
						OFFSET 0.200000 -0.500000 1.950000
						CHANNELS 3 Zrotation Yrotation Xrotation
						End Site
						{
							OFFSET 0.000000 0.000000 0.000000
						}
					}
				}
			}
		}
	}
	JOINT RHipJoint
	{
		OFFSET 0.000000 0.000000 0.000000
		CHANNELS 3 Zrotation Yrotation Xrotation
		JOINT RightUpLeg
		{
			OFFSET -1.800000 -1.400000 0.085000
			CHANNELS 3 Zrotation Yrotation Xrotation
			JOINT RightLeg
			{
				OFFSET -2.215000 -6.000000 0.000000
				CHANNELS 3 Zrotation Yrotation Xrotation
				JOINT RightFoot
				{
					OFFSET -2.500000 -6.900000 0.000000
					CHANNELS 3 Zrotation Yrotation Xrotation
					JOINT RightToeBase
					{
						OFFSET -0.200000 -0.500000 1.950000
						CHANNELS 3 Zrotation Yrotation Xrotation
						End Site
						{
							OFFSET 0.000000 0.000000 0.000000
						}
					}
				}
			}
		}
	}
	JOINT LowerBack
	{
		OFFSET 0.000000 0.000000 0.000000
		CHANNELS 3 Zrotation Yrotation Xrotation
		JOINT Spine
		{
			OFFSET -0.087000 1.940000 -0.288900
			CHANNELS 3 Zrotation Yrotation Xrotation
			JOINT Spine1
			{
				OFFSET 0.000000 1.950000 0.060000
				CHANNELS 3 Zrotation Yrotation Xrotation
				JOINT Neck
				{
					OFFSET 0.000000 0.000000 0.000000
					CHANNELS 3 Zrotation Yrotation Xrotation
					JOINT Neck1
					{
						OFFSET 0.000000 1.600000 0.340000
						CHANNELS 3 Zrotation Yrotation Xrotation
						JOINT Head
						{
							OFFSET 0.000000 1.667000 -0.240000
							CHANNELS 3 Zrotation Yrotation Xrotation
							End Site
							{
								OFFSET 0.000000 0.000000 0.000000
							}
						}
					}
				}
				JOINT LeftShoulder
				{
					OFFSET 0.000000 0.000000 0.000000
					CHANNELS 3 Zrotation Yrotation Xrotation
					JOINT LeftArm
					{
						OFFSET 2.700000 1.550000 -0.730000
						CHANNELS 3 Zrotation Yrotation Xrotation
						JOINT LeftForeArm
						{
							OFFSET 5.450000 0.000000 0.000000
							CHANNELS 3 Zrotation Yrotation Xrotation
							JOINT LeftHand
							{
								OFFSET 3.450000 0.000000 0.000000
								CHANNELS 3 Zrotation Yrotation Xrotation
								JOINT LeftHandIndex1
								{
									OFFSET 0.750000 0.000000 0.000000
									CHANNELS 3 Zrotation Yrotation Xrotation
									End Site
									{
										OFFSET 0.000000 0.000000 0.000000
									}
								}
							}
						}
					}
				}
				JOINT RightShoulder
				{
					OFFSET 0.000000 0.000000 0.000000
					CHANNELS 3 Zrotation Yrotation Xrotation
					JOINT RightArm
					{
						OFFSET -2.700000 1.550000 -0.730000
						CHANNELS 3 Zrotation Yrotation Xrotation
						JOINT RightForeArm
						{
							OFFSET -5.450000 0.000000 0.000000
							CHANNELS 3 Zrotation Yrotation Xrotation
							JOINT RightHand
							{
								OFFSET -3.450000 0.000000 0.000000
								CHANNELS 3 Zrotation Yrotation Xrotation
								JOINT RightHandIndex1
								{
									OFFSET -0.750000 0.000000 0.000000
									CHANNELS 3 Zrotation Yrotation Xrotation
									End Site
									{
										OFFSET 0.000000 0.000000 0.000000
									}
								}
							}
						}
					}
				}
			}
		}
	}
}
MOTION
Frames: 12
Frame Time: 0.016667
0.971870 17.822810 -2.218720 -3.560772 0.901306 -6.389307 -15.137318 12.745914 2.307014 0.527396 -0.199664 -3.110458 -6.882576 6.455347 14.120236 -0.343204 4.687336 3.052963 0.051520 -0.131460 0.061980 18.681954 -8.735092 5.106807 1.898849 11.444569 -53.524988 -8.921944 -7.306694 73.771148 -1.610936 -10.872465 0.709558 0.027630 0.356820 0.105540 -4.208565 -3.118302 -8.401325 14.583162 -7.349162 15.673857 -4.900645 -5.119467 3.716713 1.290740 -3.713776 -6.685106 -11.796046 4.719767 43.042899 -5.731180 5.339720 -1.434230 -24.727572 -6.117864 0.089344 -41.686940 -17.128003 -0.560055 -34.293351 -59.478640 17.025279 -3.912117 3.172863 0.342710 0.244960 -0.145520 0.051290 21.818221 5.472745 3.264176 52.541804 1.685524 -5.881727 10.796695 13.045229 -0.261665 2.313238 -1.110468 -0.310180 0.276560 0.200740 -0.168890 
0.975050 17.827710 -2.219650 -3.597054 0.818028 -6.483072 -15.132411 12.745942 2.303629 0.469488 -0.199618 -3.097588 -6.753753 6.438220 14.250287 -0.346714 4.679931 3.051552 0.056910 -0.125740 0.066230 18.686744 -8.731479 5.122378 1.956865 11.493183 -53.646720 -8.991664 -7.263222 73.849915 -1.616982 -10.876252 0.709017 0.029110 0.350190 0.103620 -4.221476 -3.115799 -8.409653 14.734315 -7.410883 15.866851 -4.983508 -5.126115 3.728265 1.302264 -3.776889 -6.771340 -11.984184 4.829843 43.289552 -5.633550 5.338490 -1.619050 -24.741757 -6.300859 0.161088 -41.616230 -17.181633 -0.619934 -34.212332 -60.042618 17.133161 -3.904086 3.171770 0.349750 0.238170 -0.140340 0.049810 21.800945 5.691897 3.331489 52.561595 1.783809 -5.839964 10.583621 12.924965 -0.270840 2.314048 -1.104956 -0.308660 0.277900 0.199700 -0.170960 
0.979360 17.836240 -2.219710 -3.635011 0.638436 -6.673745 -15.126210 12.738300 2.302747 0.420627 -0.185697 -2.986233 -6.697965 6.437650 14.329135 -0.352771 4.682179 3.044657 0.064860 -0.117570 0.073620 18.694336 -8.720410 5.150690 2.222268 11.654237 -53.787852 -9.364591 -6.963708 74.024728 -1.630301 -10.873055 0.708838 0.032480 0.339900 0.100460 -4.239235 -3.106544 -8.428495 14.912946 -7.473532 16.195193 -5.113035 -5.103070 3.796652 1.319525 -3.849223 -6.925974 -12.259425 5.011779 43.837449 -5.419170 5.328840 -2.024300 -24.647575 -6.608173 0.293510 -41.539178 -17.322050 -0.691036 -34.133951 -61.072242 17.363371 -3.891076 3.165716 0.366070 0.224820 -0.128830 0.047150 21.665496 6.055409 3.429368 52.676488 2.043257 -5.694530 10.297086 12.488085 -0.283732 2.317952 -1.090572 -0.309220 0.284920 0.200380 -0.175110 
0.984300 17.845480 -2.218110 -3.677538 0.269300 -6.871526 -15.119881 12.719840 2.299573 0.381901 -0.182613 -2.868124 -6.746994 6.466573 14.421430 -0.358849 4.694739 3.032107 0.080000 -0.103530 0.085900 18.706046 -8.690273 5.195471 2.634340 11.954669 -53.980652 -9.880845 -6.534086 74.345055 -1.651111 -10.886004 0.703626 0.040420 0.325620 0.096800 -4.262234 -3.103010 -8.448856 15.180856 -7.536302 16.594914 -5.206892 -5.057049 3.862539 1.272018 -4.075285 -7.067503 -12.877452 5.294725 44.294527 -5.110690 5.234670 -2.556010 -24.548944 -6.797239 0.384748 -41.547440 -17.541711 -0.716773 -34.070106 -62.450488 17.705479 -3.873466 3.162871 0.384760 0.207410 -0.115890 0.045040 21.640119 6.404294 3.520882 52.638939 2.268694 -5.588520 10.006960 12.219185 -0.288884 2.319637 -1.078912 -0.308960 0.291060 0.197740 -0.180150 
0.989520 17.855210 -2.216610 -3.788068 -0.233914 -7.036863 -15.111070 12.694263 2.291653 0.366339 -0.196221 -2.820803 -6.819962 6.505616 14.545922 -0.367206 4.708488 3.022338 0.086520 -0.096840 0.092410 18.721598 -8.652234 5.253990 3.184424 12.361830 -54.166208 -10.376186 -6.108889 74.732011 -1.674161 -10.912241 0.697465 0.045980 0.315510 0.087420 -4.293964 -3.091330 -8.471540 15.590650 -7.582211 17.005410 -5.312219 -4.954254 3.943614 1.236536 -4.317126 -7.252389 -13.558603 5.526525 44.737040 -4.944910 5.144820 -2.968570 -24.499996 -7.119501 0.486513 -41.474256 -17.847901 -0.733474 -33.838060 -63.801136 17.942823 -3.858387 3.151481 0.402130 0.192450 -0.107250 0.042110 21.628598 6.894619 3.711315 52.567225 2.367360 -5.583806 9.672252 12.234133 -0.290124 2.316116 -1.065438 -0.314780 0.302800 0.198780 -0.185660 
0.993950 17.862930 -2.213320 -3.794373 -0.746680 -7.214436 -15.110135 12.665296 2.287430 0.246770 -0.205448 -2.783966 -6.903417 6.541691 14.691519 -0.378132 4.723351 3.007451 0.100360 -0.087110 0.108450 18.731482 -8.600919 5.321839 3.580816 12.744548 -54.576645 -10.930746 -5.681691 75.320763 -1.708135 -10.980007 0.674716 0.052070 0.297620 0.088350 -4.306349 -3.097265 -8.505580 15.781457 -7.602724 17.469213 -5.410941 -4.850781 4.054126 1.235300 -4.481001 -7.425248 -14.078541 5.674192 45.131654 -5.003640 5.155010 -3.514160 -24.403295 -7.472529 0.572943 -41.261995 -18.260120 -0.695952 -33.727501 -65.291674 18.321219 -3.843763 3.149794 0.423170 0.177600 -0.093150 0.037300 21.519921 7.363165 3.898462 52.659679 2.467334 -5.624158 9.442438 12.423060 -0.284717 2.309150 -1.059215 -0.315180 0.303820 0.197420 -0.195390 
0.996660 17.868550 -2.207940 -3.770776 -1.193985 -7.392420 -15.115338 12.634997 2.289319 0.161166 -0.226037 -2.767928 -7.170150 6.620976 14.799041 -0.379715 4.747658 2.988433 0.114250 -0.072500 0.123490 18.735629 -8.545907 5.385089 4.001040 13.092022 -55.025266 -11.643574 -5.133280 75.914921 -1.743100 -11.050788 0.649871 0.058470 0.279600 0.091570 -4.302151 -3.115778 -8.545351 15.790301 -7.593673 17.919650 -5.416990 -4.757317 4.206599 1.235691 -4.515060 -7.570996 -14.316704 5.737064 45.511424 -5.067380 5.244990 -4.038550 -24.231609 -7.833414 0.649706 -41.028510 -18.826748 -0.575444 -33.544262 -66.840317 18.702630 -3.830920 3.152174 0.438020 0.165020 -0.077760 0.032550 21.354749 7.746002 4.055140 52.767203 2.559241 -5.671445 9.421096 12.726282 -0.269813 2.303519 -1.057233 -0.310550 0.301280 0.194250 -0.201960 
0.996560 17.871270 -2.201090 -3.849989 -1.621601 -7.462041 -15.120693 12.600633 2.272170 0.166272 -0.273386 -2.853321 -7.287095 6.670483 14.974250 -0.386747 4.762923 2.974813 0.124030 -0.063710 0.140280 18.743089 -8.477103 5.467996 4.436289 13.517703 -55.679849 -12.334886 -4.613943 76.587740 -1.778850 -11.142410 0.619600 0.063250 0.265190 0.094210 -4.303400 -3.135561 -8.579900 15.885679 -7.588415 18.239738 -5.362516 -4.667351 4.383658 1.229853 -4.504528 -7.655770 -14.413067 5.693325 45.693030 -5.274260 5.372520 -4.494770 -23.950666 -8.085607 0.683467 -40.998555 -19.542480 -0.369279 -32.751056 -68.205246 18.631085 -3.823187 3.147821 0.448690 0.157390 -0.066790 0.025590 21.086762 7.973655 4.154998 52.975743 2.651056 -5.756485 9.372706 13.184918 -0.257944 2.296393 -1.056060 -0.308600 0.299840 0.192460 -0.210080 
0.995610 17.876110 -2.191920 -3.970232 -2.070737 -7.542744 -15.124104 12.573065 2.248230 0.161534 -0.297966 -2.880782 -7.197177 6.669699 15.151555 -0.394518 4.763477 2.967415 0.130430 -0.056200 0.147180 18.752230 -8.410481 5.552449 4.840819 13.945446 -56.332211 -12.978091 -4.130807 77.277661 -1.813625 -11.244211 0.591339 0.067560 0.256080 0.095800 -4.310354 -3.158709 -8.609228 16.052552 -7.615814 18.562180 -5.326463 -4.597974 4.546585 1.203568 -4.546505 -7.778521 -14.629683 5.737643 45.853682 -5.333990 5.453850 -4.817650 -23.710548 -8.405320 0.745264 -40.905013 -20.197778 -0.206098 -31.811177 -69.571126 18.428777 -3.815595 3.144137 0.456240 0.152550 -0.059350 0.022130 20.896206 8.286493 4.308140 53.073186 2.656552 -5.892813 9.398633 13.807811 -0.235363 2.285052 -1.056209 -0.307040 0.299350 0.192360 -0.214470 
0.994940 17.883790 -2.183150 -4.073285 -2.632201 -7.629936 -15.127283 12.540098 2.217895 0.081978 -0.289670 -2.856246 -6.946157 6.621113 15.295861 -0.407553 4.750776 2.967477 0.137340 -0.049520 0.154290 18.764334 -8.335289 5.652382 5.201143 14.462335 -57.057306 -13.636974 -3.601135 78.045307 -1.853978 -11.359338 0.559654 0.072220 0.250380 0.097450 -4.322719 -3.174586 -8.639533 16.234964 -7.629744 18.930240 -5.330974 -4.508754 4.702154 1.167834 -4.620665 -7.883120 -14.909843 5.861960 46.021563 -5.330980 5.533660 -5.206570 -23.470062 -8.659633 0.777138 -40.761233 -20.789696 -0.063430 -30.979456 -70.818209 18.234726 -3.808912 3.137009 0.467300 0.147250 -0.051480 0.020440 20.718422 8.556582 4.440358 53.156839 2.684768 -6.067155 9.499227 14.619026 -0.198221 2.270505 -1.054923 -0.308170 0.303540 0.193050 -0.218710 
0.992970 17.895280 -2.174310 -4.008188 -3.283287 -7.828093 -15.141561 12.523447 2.213357 -0.166112 -0.249111 -2.775291 -6.811764 6.592819 15.364802 -0.415898 4.742813 2.964953 0.145120 -0.042730 0.165440 18.761578 -8.260979 5.735368 5.510567 14.893220 -57.597430 -14.397435 -2.932500 78.671409 -1.890355 -11.449234 0.535421 0.075380 0.240120 0.097460 -4.297180 -3.233806 -8.684030 16.062130 -7.578459 19.540463 -5.145501 -4.400483 4.761854 1.104447 -4.717720 -8.006117 -15.293418 6.096486 46.325132 -5.374240 5.693180 -5.674960 -23.451025 -8.941684 0.801339 -40.373977 -21.152813 -0.076968 -30.268417 -72.074925 18.094192 -3.800075 3.127996 0.481620 0.138390 -0.040990 0.016330 20.848105 8.916279 4.593753 52.961175 2.628037 -6.248038 9.439592 15.275409 -0.169638 2.257825 -1.048599 -0.308780 0.307720 0.193140 -0.225150 
0.990370 17.905200 -2.161790 -3.936174 -4.073595 -7.880748 -15.154209 12.479070 2.210242 -0.276684 -0.172998 -2.578030 -7.009965 6.590329 14.948270 -0.413196 4.726121 2.967634 0.152360 -0.029810 0.172450 18.765855 -8.172119 5.828493 5.796284 15.422818 -58.216365 -15.122772 -2.244137 79.261054 -1.925774 -11.539535 0.510859 0.079920 0.230960 0.096780 -4.287178 -3.262013 -8.729374 15.977205 -7.441760 19.926168 -5.021266 -4.211601 4.866710 1.043738 -4.815274 -8.122463 -15.638268 6.332285 46.506565 -5.422770 5.896520 -6.017410 -23.301881 -9.174707 0.838252 -40.155198 -21.582164 0.000143 -29.431511 -73.193177 17.823591 -3.790694 3.122954 0.486670 0.131610 -0.031100 0.014490 20.820008 9.250809 4.723833 52.897760 2.651763 -6.258779 9.391759 15.316861 -0.170171 2.257129 -1.045935 -0.304750 0.309070 0.189820 -0.225980 
